#!OML:ASF H:\Punching\Project 1\Capture day 1\Session 1\female.ASF
:FULLY-SPECIFIED
:DEGREES
2271
root 1.05753 15.2132 3.06142 -7.85211 16.1652 -4.21732
lowerback 4.65977 -1.81714 -1.9861
upperback -0.442134 -2.34878 6.08568
thorax -2.7386 -1.0957 7.65194
lowerneck -8.73495 -0.181693 8.47053
upperneck 44.2071 -0.87078 -3.64518
head 17.8596 0.743752 -3.35583
rclavicle 3.16068e-014 -4.77083e-015
rhumerus -1.01136 11.9552 -63.2867
rradius 129.597
rwrist -15.0504
rhand -36.0966 11.3063
rfingers 7.12502
rthumb -9.20305 -18.4729
lclavicle 3.16068e-014 -4.77083e-015
lhumerus 7.64759 -32.6277 75.5185
lradius 133.946
lwrist 0.440538
lhand -28.9696 0.554487
lfingers 7.12502
lthumb -2.32239 30.5216
rfemur -92.1451 -0.0946632 25.2379
rtibia 133.24
rfoot -3.91436 2.70225
rtoes -19.1792
lfemur -11.2259 -7.86011 -26.7508
ltibia 36.0098
lfoot -14.713 10.1711
ltoes 19.7169
2272
root 1.06318 15.2249 2.98482 -6.36557 15.0521 -3.84022
lowerback 4.34444 -1.68386 -1.833
upperback -0.799103 -2.15664 5.93561
thorax -2.97134 -0.989159 7.38743
lowerneck -8.94763 0.0764846 8.6782
upperneck 43.9649 -0.469245 -3.86386
head 17.8071 0.895152 -3.42908
rclavicle 3.15074e-014 7.95139e-015
rhumerus -0.448651 12.2377 -63.2861
rradius 129.542
rwrist -14.9481
rhand -36.0486 11.0911
rfingers 7.12502
rthumb -9.15673 -18.6901
lclavicle 3.15074e-014 7.95139e-015
lhumerus 7.73371 -32.0834 74.7196
lradius 134.029
lwrist 0.494162
lhand -28.9783 0.577628
lfingers 7.12502
lthumb -2.33074 30.5446
rfemur -90.9993 0.285345 25.2723
rtibia 134.202
rfoot -4.44285 2.77778
rtoes -18.7927
lfemur -13.0399 -7.47075 -26.8393
ltibia 36.0361
lfoot -14.4724 10.7018
ltoes 19.9438
2273
root 1.07008 15.237 2.90842 -4.94426 13.9141 -3.52428
lowerback 4.05533 -1.55137 -1.63817
upperback -1.13993 -1.96447 5.77879
thorax -3.20114 -0.885211 7.09332
lowerneck -9.15379 0.347111 8.9146
upperneck 43.7057 -0.0548177 -4.08786
head 17.7481 1.05515 -3.50618
rclavicle -3.75703e-014 3.33958e-014
rhumerus 0.111785 12.5285 -63.3246
rradius 129.488
rwrist -14.8376
rhand -36.0016 10.9117
rfingers 7.12502
rthumb -9.11139 -18.8715
lclavicle -3.75703e-014 3.33958e-014
lhumerus 7.82601 -31.539 73.8752
lradius 134.121
lwrist 0.544565
lhand -28.9913 0.628011
lfingers 7.12502
lthumb -2.34332 30.5949
rfemur -89.6207 0.629177 25.2936
rtibia 134.885
rfoot -4.86804 2.79933
rtoes -18.3521
lfemur -14.797 -7.06002 -26.8933
ltibia 36.0406
lfoot -14.239 11.228
ltoes 20.205
2274
root 1.0781 15.25 2.83249 -3.59469 12.7611 -3.28308
lowerback 3.79673 -1.42075 -1.38976
upperback -1.46575 -1.77297 5.61915
thorax -3.43137 -0.784586 6.76722
lowerneck -9.3484 0.628003 9.17467
upperneck 43.4305 0.367717 -4.30978
head 17.682 1.22206 -3.58339
rclavicle -1.13307e-014 -1.27222e-014
rhumerus 0.663848 12.8274 -63.3977
rradius 129.443
rwrist -14.7521
rhand -35.9652 10.7946
rfingers 7.12502
rthumb -9.07619 -18.9901
lclavicle -1.13307e-014 -1.27222e-014
lhumerus 7.92217 -31.006 72.9897
lradius 134.228
lwrist 0.585521
lhand -29.0189 0.706347
lfingers 7.12502
lthumb -2.36994 30.6729
rfemur -88.0059 0.926282 25.3113
rtibia 135.272
rfoot -5.17368 2.79914
rtoes -17.8424
lfemur -16.4903 -6.63403 -26.8972
ltibia 36.0285
lfoot -14.0165 11.7443
ltoes 20.4888
2275
root 1.08723 15.2638 2.75753 -2.31744 11.6014 -3.11769
lowerback 3.56159 -1.29361 -1.08866
upperback -1.77178 -1.58463 5.4597
thorax -3.65221 -0.689126 6.4126
lowerneck -9.53803 0.919882 9.44799
upperneck 43.1482 0.798267 -4.52194
head 17.6162 1.39557 -3.65565
rclavicle -3.47873e-015 3.18055e-015
rhumerus 1.217 13.1301 -63.5027
rradius 129.4
rwrist -14.7209
rhand -35.9251 10.7554
rfingers 7.12502
rthumb -9.03754 -19.031
lclavicle -3.47873e-015 3.18055e-015
lhumerus 8.01661 -30.4677 72.073
lradius 134.353
lwrist 0.647788
lhand -29.0276 0.786058
lfingers 7.12502
lthumb -2.37833 30.7525
rfemur -86.1694 1.17113 25.3279
rtibia 135.357
rfoot -5.35063 2.79998
rtoes -17.2925
lfemur -18.1193 -6.19979 -26.8481
ltibia 36.0116
lfoot -13.8113 12.2506
ltoes 20.7897
2276
root 1.09719 15.2777 2.68385 -1.10499 10.4378 -3.02011
lowerback 3.3487 -1.16862 -0.747079
upperback -2.05972 -1.39828 5.30236
thorax -3.8643 -0.598061 6.03856
lowerneck -9.73288 1.22126 9.72972
upperneck 42.8682 1.23341 -4.72151
head 17.5586 1.57422 -3.72181
rclavicle 6.60959e-015 -3.33958e-014
rhumerus 1.76947 13.4399 -63.6322
rradius 129.362
rwrist -14.7381
rhand -35.8845 10.7428
rfingers 7.12502
rthumb -8.99839 -19.0453
lclavicle 6.60959e-015 -3.33958e-014
lhumerus 8.1037 -29.9302 71.1319
lradius 134.506
lwrist 0.721655
lhand -29.0277 0.897144
lfingers 7.12502
lthumb -2.37847 30.8636
rfemur -84.1495 1.36616 25.331
rtibia 135.143
rfoot -5.39886 2.83305
rtoes -16.7052
lfemur -19.694 -5.76746 -26.7507
ltibia 36.0048
lfoot -13.6252 12.756
ltoes 21.0949
2277
root 1.10779 15.2909 2.61205 0.048869 9.26836 -2.97726
lowerback 3.15185 -1.04609 -0.38372
upperback -2.32709 -1.21541 5.14905
thorax -4.06078 -0.511848 5.65762
lowerneck -9.94395 1.53048 10.0071
upperneck 42.5987 1.66917 -4.90009
head 17.516 1.75557 -3.77669
rclavicle 3.61788e-014 -2.06736e-014
rhumerus 2.32677 13.7516 -63.7842
rradius 129.332
rwrist -14.8062
rhand -35.8001 10.7018
rfingers 7.12502
rthumb -8.91691 -19.0898
lclavicle 3.61788e-014 -2.06736e-014
lhumerus 8.18605 -29.3815 70.1754
lradius 134.684
lwrist 0.808189
lhand -29.0117 1.02482
lfingers 7.12502
lthumb -2.36299 30.9915
rfemur -81.997 1.5181 25.3082
rtibia 134.644
rfoot -5.31796 2.90669
rtoes -16.1398
lfemur -21.1961 -5.3357 -26.6159
ltibia 35.9684
lfoot -13.4334 13.2636
ltoes 21.388
2278
root 1.11865 15.3023 2.54255 1.15062 8.0922 -2.97102
lowerback 2.96431 -0.923237 -0.0201407
upperback -2.57604 -1.03356 4.99733
thorax -4.24001 -0.428536 5.2792
lowerneck -10.1518 1.84565 10.2932
upperneck 42.3261 2.10688 -5.07093
head 17.4753 1.94007 -3.82776
rclavicle 3.01159e-014 -2.3059e-014
rhumerus 2.88174 14.0659 -63.9536
rradius 129.293
rwrist -14.897
rhand -35.7087 10.7038
rfingers 7.12502
rthumb -8.82867 -19.0915
lclavicle 3.01159e-014 -2.3059e-014
lhumerus 8.24632 -28.8215 69.2276
lradius 134.878
lwrist 0.907323
lhand -28.975 1.13219
lfingers 7.12502
lthumb -2.32759 31.0992
rfemur -79.7427 1.63311 25.2391
rtibia 133.891
rfoot -5.16239 3.00179
rtoes -15.6302
lfemur -22.6589 -4.90447 -26.4602
ltibia 35.9729
lfoot -13.2748 13.7795
ltoes 21.6754
